<svg viewBox="0 0 96 96" xmlns="http://www.w3.org/2000/svg" xmlns:xlink="http://www.w3.org/1999/xlink" id="Icons_Exit_M" overflow="hidden"><style>
.MsftOfcResponsive_Fill_002060 {
 fill:#002060; 
}
</style>
<path d="M11.938 80.122 38.255 91.022 38.255 4.1 11.938 15ZM13.938 16.339 36.255 7.094 36.255 88.032 13.938 78.786Z" class="MsftOfcResponsive_Fill_002060" stroke="#FFFFFF" stroke-width="2.37037" fill="#002060"/><path d="M55 41 57 41 57 16 42 16 42 18 55 18 55 41Z" class="MsftOfcResponsive_Fill_002060" stroke="#FFFFFF" stroke-width="2.37037" fill="#002060"/><path d="M55 76 42 76 42 78 57 78 57 53 55 53 55 76Z" class="MsftOfcResponsive_Fill_002060" stroke="#FFFFFF" stroke-width="2.37037" fill="#002060"/><path d="M68.707 31.293 67.293 32.707 80.569 45.983C80.5729 45.9869 80.5728 45.9933 80.5689 45.9971 80.567 45.9989 80.5646 46 80.562 46L47 46 47 48 80.562 48C80.5675 48.0001 80.5719 48.0046 80.5719 48.0101 80.5718 48.0127 80.5708 48.0152 80.569 48.017L67.293 61.293 68.707 62.707 84.414 47Z" class="MsftOfcResponsive_Fill_002060" stroke="#FFFFFF" stroke-width="2.37037" fill="#002060"/></svg>